<?xml version="1.0" encoding="utf-8"?>
<svg xmlns="http://www.w3.org/2000/svg" viewBox="0 0 500 500" xmlns:bx="https://boxy-svg.com">
  <defs>
    <bx:export>
      <bx:file format="png" href="#object-0"/>
      <bx:file format="png" href="#object-2" path="Untitled 3.png"/>
      <bx:file format="png" href="#object-3" path="Untitled 4.png"/>
      <bx:file format="png" href="#object-5" path="Untitled 6.png"/>
      <bx:file format="png" href="#object-6" path="Untitled 7.png"/>
    </bx:export>
  </defs>
  <path style="stroke: rgb(0, 0, 0); fill: rgb(255, 255, 255); stroke-width: 4px; stroke-linecap: round; stroke-linejoin: round;" d="M 137.344 244.662 C 136.665 244.042 132.208 240.158 127.898 236.485 C 123.598 232.819 119.446 229.364 119.343 229.57 C 102.75 220.064 69.67 241.28 98.449 289.54 L 294.724 290.623 C 285.717 338.725 344.919 309.19 364.233 291.007 L 423.668 291.335 C 425.392 292.47 411.149 254.245 383.876 236.285 C 383.453 213.382 391.415 192.775 377.892 169.565 C 369.739 170.835 353.549 181.415 347.375 189.312 C 320.799 179.406 270.707 168.45 235.179 169.266 C 230.139 162.522 216.085 150.145 208.335 147.132 C 204.549 150.942 197.618 159.218 192.007 174.026 C 170.898 183.586 137.701 211.485 127.083 234.955" id="object-0"/>
  <path style="fill: none; stroke: rgb(0, 0, 0); stroke-linecap: round; stroke-width: 5px; stroke-linejoin: round;" d="" id="object-1"/>
  <path style="fill: none; stroke: rgb(0, 0, 0); stroke-width: 4px; stroke-linecap: round; stroke-linejoin: round;" d="M 209.618 247.779 C 211.423 258.852 225.933 254.639 229.552 246.378 C 230.772 256.95 244.89 257.389 249.046 250.902" id="object-2"/>
  <path d="M 184.206 238.361 C 185.272 238.174 186.614 238.144 187.766 238.55 C 189.025 238.994 190.582 240.152 191.421 241.108 C 192.13 241.918 192.471 242.697 192.732 243.761 C 193.043 245.023 193.272 246.821 192.92 248.309 C 192.545 249.889 191.34 251.909 190.39 252.951 C 189.644 253.767 188.865 254.149 187.954 254.466 C 187 254.799 185.803 254.942 184.768 254.845 C 183.742 254.749 182.615 254.382 181.77 253.898 C 180.979 253.445 180.359 252.868 179.802 252.098 C 179.178 251.237 178.586 250.028 178.303 248.877 C 178.012 247.696 177.958 246.209 178.115 245.087 C 178.255 244.091 178.54 243.308 179.052 242.435 C 179.636 241.441 180.663 240.184 181.582 239.498 C 182.397 238.889 183.23 238.531 184.206 238.361 Z M 291.21 245.94 C 292.362 246.356 293.691 247.301 294.489 248.309 C 295.274 249.298 295.729 250.583 295.988 251.908 C 296.269 253.341 296.351 255.129 295.988 256.645 C 295.618 258.195 294.648 260.09 293.74 261.098 C 293.001 261.917 292.088 262.299 291.21 262.614 C 290.367 262.916 289.489 263.071 288.586 262.993 C 287.619 262.91 286.433 262.53 285.588 262.045 C 284.797 261.592 284.058 261.199 283.506 260.399 C 283.086 259.79 282.526 259.215 282.226 258.371 C 281.824 257.746 281.758 256.675 281.559 255.888 C 281.269 254.737 281.283 253.044 281.654 251.669 C 282.09 250.061 283.356 247.893 284.463 246.887 C 285.295 246.133 286.082 245.926 287.087 245.75 C 287.756 245.633 288.581 245.574 289.389 245.629 C 290.007 245.642 290.637 245.733 291.21 245.94 Z" style="mix-blend-mode: normal; isolation: auto; stroke-width: 0px; fill-rule: evenodd; paint-order: fill;" id="object-3"/>
  <path d="M 102.512 240.737 C 102.976 240.684 103.412 240.736 103.866 240.93 C 104.394 241.157 105.072 241.557 105.461 242.139 C 105.907 242.806 106.22 244.119 106.235 244.847 C 106.246 245.398 106.08 245.773 105.848 246.2 C 105.597 246.663 105.243 247.194 104.736 247.506 C 104.166 247.856 103.242 248.188 102.512 248.086 C 101.742 247.979 100.733 247.286 100.24 246.78 C 99.844 246.375 99.692 245.908 99.563 245.427 C 99.432 244.941 99.401 244.38 99.466 243.88 C 99.531 243.381 99.698 242.857 99.949 242.429 C 100.199 242.004 100.549 241.597 100.965 241.317 C 101.397 241.026 102.011 240.794 102.512 240.737 Z M 117.179 241.867 C 118.11 241.709 119.295 241.894 120.08 242.157 C 120.741 242.378 121.328 242.798 121.676 243.172 C 121.954 243.471 122.074 243.766 122.159 244.139 C 122.255 244.558 122.318 245.094 122.159 245.589 C 121.974 246.17 121.531 246.864 120.951 247.378 C 120.283 247.971 119.114 248.564 118.243 248.829 C 117.477 249.062 116.565 249.218 115.826 249.07 C 115.034 248.912 114.111 248.269 113.65 247.813 C 113.318 247.486 113.25 247.147 113.166 246.75 C 113.075 246.317 113.012 245.826 113.166 245.299 C 113.36 244.641 113.838 243.688 114.472 243.124 C 115.148 242.521 116.24 242.026 117.179 241.867 Z M 99.321 254.275 C 99.866 254.213 100.385 254.276 100.868 254.468 C 101.371 254.668 101.934 255.107 102.27 255.483 C 102.562 255.809 102.72 256.105 102.85 256.547 C 103.011 257.091 103.094 257.983 103.044 258.578 C 103 259.09 102.889 259.504 102.657 259.931 C 102.406 260.394 102.104 260.893 101.545 261.237 C 100.826 261.679 99.362 262.204 98.451 262.107 C 97.628 262.02 96.753 261.383 96.275 260.898 C 95.883 260.502 95.726 260.016 95.598 259.545 C 95.472 259.081 95.424 258.606 95.501 258.094 C 95.588 257.518 95.854 256.788 96.178 256.257 C 96.49 255.746 96.884 255.279 97.387 254.951 C 97.919 254.605 98.713 254.343 99.321 254.275 Z M 110.05 253.206 C 110.719 253.086 111.348 253.163 111.984 253.303 C 112.638 253.447 113.176 253.628 113.918 254.076 C 114.942 254.696 116.595 255.87 117.544 257.026 C 118.467 258.151 119.184 259.487 119.574 260.894 C 119.978 262.348 120.04 264.396 119.865 265.632 C 119.731 266.571 119.371 267.248 118.994 267.856 C 118.66 268.396 118.293 268.807 117.786 269.161 C 117.233 269.548 116.49 269.883 115.755 270.032 C 114.981 270.188 114.078 270.183 113.241 270.032 C 112.369 269.874 111.463 269.556 110.63 269.065 C 109.732 268.535 108.786 267.791 108.067 266.889 C 107.302 265.929 106.591 264.375 106.23 263.408 C 105.962 262.689 105.916 262.312 105.843 261.571 C 105.751 260.622 105.751 259.039 105.843 258.089 C 105.916 257.348 105.955 256.864 106.23 256.252 C 106.542 255.559 107.089 254.681 107.729 254.173 C 108.364 253.669 109.307 253.34 110.05 253.206 Z" style="mix-blend-mode: normal; isolation: auto; fill: rgb(240, 171, 171); stroke-width: 1px;" id="object-5"/>
  <path style="fill: none; stroke: rgb(0, 0, 0); stroke-width: 4px; stroke-linecap: round;" d="M 294.255 293.624 C 296.055 284.721 304.8 276.122 305.088 275.754"/>
  <line style="fill: none; stroke-linecap: round; stroke-width: 5px; stroke-linejoin: round; stroke: rgb(219, 54, 54);" x1="275.363" y1="332.892" x2="289.499" y2="323.572"/>
  <line style="fill: none; stroke-linecap: round; stroke-width: 5px; stroke-linejoin: round; stroke: rgb(219, 54, 54);" x1="296.62" y1="333.102" x2="298.924" y2="345.243"/>
  <line style="fill: none; stroke-linecap: round; stroke-width: 5px; stroke-linejoin: round; stroke: rgb(219, 54, 54);" x1="326.884" y1="327.447" x2="340.707" y2="339.385"/>
</svg>