<?xml version="1.0" encoding="utf-8"?>
<svg xmlns="http://www.w3.org/2000/svg" viewBox="0 0 500 500" xmlns:bx="https://boxy-svg.com">
  <defs>
    <bx:export>
      <bx:file format="png" href="#object-0"/>
      <bx:file format="png" href="#object-2" path="Untitled 3.png"/>
      <bx:file format="png" href="#object-6" path="Untitled 7.png"/>
    </bx:export>
    <bx:export>
      <bx:file format="png" href="#object-0"/>
      <bx:file format="png" href="#object-2" path="Untitled 3.png"/>
      <bx:file format="png" href="#object-6" path="Untitled 7.png"/>
    </bx:export>
  </defs>
  <path style="stroke: rgb(0, 0, 0); stroke-linejoin: round; fill: rgb(255, 255, 255); stroke-width: 4px; stroke-linecap: round;" d="M 170.811 289.814 L 423.668 291.335 C 425.392 292.47 411.149 254.245 383.876 236.285 C 383.453 213.382 391.415 192.775 377.892 169.565 C 369.739 170.835 353.549 181.415 347.375 189.312 C 320.799 179.406 270.707 168.45 235.179 169.266 C 230.139 162.522 216.085 150.145 208.335 147.132 C 204.549 150.942 197.618 159.218 192.007 174.026 C 93.111 228.92 57.447 372.245 170.811 289.814 Z" id="object-0"/>
  <path style="fill: none; stroke: rgb(0, 0, 0); stroke-linecap: round; stroke-width: 5px; stroke-linejoin: round;" d="M 359.342 247.654 C 321.873 200.429 292.785 252.989 319.381 289.964" id="object-1"/>
  <path style="fill: none; stroke: rgb(0, 0, 0); stroke-width: 4px; stroke-linecap: round; stroke-linejoin: round;" d="M 209.618 247.779 C 211.423 258.852 225.933 254.639 229.552 246.378 C 230.772 256.95 244.89 257.389 249.046 250.902" id="object-2"/>
  <path d="M 323.705 240.737 C 324.169 240.684 324.605 240.736 325.059 240.93 C 325.587 241.157 326.265 241.557 326.654 242.139 C 327.1 242.806 327.413 244.119 327.428 244.847 C 327.439 245.398 327.273 245.773 327.041 246.2 C 326.79 246.663 326.436 247.194 325.929 247.506 C 325.359 247.856 324.435 248.188 323.705 248.086 C 322.935 247.979 321.926 247.286 321.433 246.78 C 321.037 246.375 320.885 245.908 320.756 245.427 C 320.625 244.941 320.594 244.38 320.659 243.88 C 320.724 243.381 320.891 242.857 321.142 242.429 C 321.392 242.004 321.742 241.597 322.158 241.317 C 322.59 241.026 323.204 240.794 323.705 240.737 Z M 338.372 241.867 C 339.303 241.709 340.488 241.894 341.273 242.157 C 341.934 242.378 342.521 242.798 342.869 243.172 C 343.147 243.471 343.267 243.766 343.352 244.139 C 343.448 244.558 343.511 245.094 343.352 245.589 C 343.167 246.17 342.724 246.864 342.144 247.378 C 341.476 247.971 340.307 248.564 339.436 248.829 C 338.67 249.062 337.758 249.218 337.019 249.07 C 336.227 248.912 335.304 248.269 334.843 247.813 C 334.511 247.486 334.443 247.147 334.359 246.75 C 334.268 246.317 334.205 245.826 334.359 245.299 C 334.553 244.641 335.031 243.688 335.665 243.124 C 336.341 242.521 337.433 242.026 338.372 241.867 Z M 320.514 254.275 C 321.059 254.213 321.578 254.276 322.061 254.468 C 322.564 254.668 323.127 255.107 323.463 255.483 C 323.755 255.809 323.913 256.105 324.043 256.547 C 324.204 257.091 324.287 257.983 324.237 258.578 C 324.193 259.09 324.082 259.504 323.85 259.931 C 323.599 260.394 323.297 260.893 322.738 261.237 C 322.019 261.679 320.555 262.204 319.644 262.107 C 318.821 262.02 317.946 261.383 317.468 260.898 C 317.076 260.502 316.919 260.016 316.791 259.545 C 316.665 259.081 316.617 258.606 316.694 258.094 C 316.781 257.518 317.047 256.788 317.371 256.257 C 317.683 255.746 318.077 255.279 318.58 254.951 C 319.112 254.605 319.906 254.343 320.514 254.275 Z M 331.243 253.206 C 331.912 253.086 332.541 253.163 333.177 253.303 C 333.831 253.447 334.369 253.628 335.111 254.076 C 336.135 254.696 337.788 255.87 338.737 257.026 C 339.66 258.151 340.377 259.487 340.767 260.894 C 341.171 262.348 341.233 264.396 341.058 265.632 C 340.924 266.571 340.564 267.248 340.187 267.856 C 339.853 268.396 339.486 268.807 338.979 269.161 C 338.426 269.548 337.683 269.883 336.948 270.032 C 336.174 270.188 335.271 270.183 334.434 270.032 C 333.562 269.874 332.656 269.556 331.823 269.065 C 330.925 268.535 329.979 267.791 329.26 266.889 C 328.495 265.929 327.784 264.375 327.423 263.408 C 327.155 262.689 327.109 262.312 327.036 261.571 C 326.944 260.622 326.944 259.039 327.036 258.089 C 327.109 257.348 327.148 256.864 327.423 256.252 C 327.735 255.559 328.282 254.681 328.922 254.173 C 329.557 253.669 330.5 253.34 331.243 253.206 Z" style="mix-blend-mode: normal; isolation: auto; fill: rgb(240, 171, 171);" id="object-4"/>
  <path style="fill: none; stroke: rgb(0, 0, 0);" d=""/>
  <path style="stroke: rgb(0, 0, 0); fill: rgb(255, 255, 255); stroke-width: 4px; stroke-linecap: round; stroke-linejoin: round;" d="M 294.724 290.623 C 285.717 338.725 344.919 309.19 364.233 291.007 L 423.668 291.335 C 425.392 292.47 411.149 254.245 383.876 236.285 C 383.453 213.382 391.415 192.775 377.892 169.565 C 369.739 170.835 353.549 181.415 347.375 189.312 C 320.799 179.406 270.707 168.45 235.179 169.266 C 230.139 162.522 216.085 150.145 208.335 147.132" id="path-1"/>
  <path style="fill: none; stroke: rgb(0, 0, 0); stroke-linecap: round; stroke-width: 5px; stroke-linejoin: round;" d="" id="path-2"/>
  <path style="fill: none; stroke: rgb(0, 0, 0); stroke-width: 4px; stroke-linecap: round; stroke-linejoin: round;" d="M 209.618 247.779 C 211.423 258.852 225.933 254.639 229.552 246.378 C 230.772 256.95 244.89 257.389 249.046 250.902" id="path-3"/>
  <path style="fill: none; stroke: rgb(0, 0, 0); stroke-width: 4px; stroke-linecap: round;" d="M 294.255 293.624 C 296.055 284.721 304.8 276.122 305.088 275.754"/>
  <path style="fill: none; stroke: rgb(0, 0, 0); stroke-width: 8px; stroke-linecap: round;" d="M 176.108 240.814 C 183.514 239.559 184.81 239.328 192.759 240.237"/>
  <path style="fill: none; stroke: rgb(0, 0, 0); stroke-width: 8px; stroke-linecap: round;" d="M 282.185 246.168 C 290.57 244.735 291.595 245.698 299.463 247.006"/>
</svg>